<svg version="1.1" xmlns="http://www.w3.org/2000/svg" xmlns:xlink="http://www.w3.org/1999/xlink" width="48" height="48"><defs><linearGradient x1="15.6256" y1="14.22989" x2="53.58756" y2="54.98331" gradientUnits="userSpaceOnUse" id="color-1"><stop offset="0" stop-color="#000000" stop-opacity="0.3"></stop><stop offset="1" stop-color="#000000" stop-opacity="0"></stop></linearGradient><linearGradient x1="33.625" y1="14.375" x2="43" y2="23.75" gradientUnits="userSpaceOnUse" id="color-2"><stop offset="0" stop-color="#000000" stop-opacity="0.3"></stop><stop offset="1" stop-color="#000000" stop-opacity="0"></stop></linearGradient><filter id="dropshadow-base"><feColorMatrix type="matrix" values="0 0 0 0 0  0 0 0 0 0  0 0 0 0 0  0 0 0 .8 0"></feColorMatrix> <feOffset dx="0" dy="1"></feOffset> <feGaussianBlur stdDeviation="1"></feGaussianBlur> <feComposite in="SourceGraphic"></feComposite></filter><filter id="dropshadow-banner" x="-10%" y="-10%" width="120%" height="130%"><feColorMatrix type="matrix" values="0 0 0 0 0  0 0 0 0 0  0 0 0 0 0  0 0 0 .4 0"></feColorMatrix> <feOffset dx="0" dy="1"></feOffset> <feGaussianBlur stdDeviation="0.5"></feGaussianBlur> <feComposite in="SourceGraphic"></feComposite></filter></defs><g fill="none" fill-rule="nonzero" stroke="none" stroke-width="none" stroke-linecap="butt" stroke-linejoin="miter" stroke-miterlimit="10" stroke-dasharray="" stroke-dashoffset="0" font-family="none" font-weight="none" font-size="none" text-anchor="none" style="mix-blend-mode: normal"><path d="M7,43c-1.10457,0 -2,-0.89543 -2,-2v-34c0,-1.10457 0.89543,-2 2,-2l26,0l10,10v26c0,1.10457 -0.89543,2 -2,2z" id="base 1 5 1 2" fill="#2da88a" stroke-width="1"></path><path d="M15.6256,30.97865v-0.98631l1.97263,-1.97263v-5.41543c0,-3.02408 2.0936,-5.55501 4.92228,-6.22496v-0.66995c0,-0.81883 0.66065,-1.47948 1.47948,-1.47948c0.40942,0 0.77929,0.16516 1.0468,0.43268l17.95321,17.95321v8.38422c0,1.10457 -0.89543,2 -2,2h-13.35305z" fill="url(#color-1)" stroke-width="1"></path><path d="M22.14833,31.91844c0,1.02354 0.82813,1.85167 1.85167,1.85167c1.02354,0 1.85167,-0.82813 1.85167,-1.85167zM30.40175,28.0197v-5.41543c0,-3.02408 -2.09359,-5.555 -4.92227,-6.22496v-0.66995c0,-0.81883 -0.66065,-1.47947 -1.47947,-1.47947c-0.81883,0 -1.47947,0.66065 -1.47947,1.47947v0.66995c-2.82868,0.66995 -4.92227,3.20087 -4.92227,6.22496v5.41543l-1.97263,1.97263v0.98632h16.74876v-0.98632zM27.72195,24.4699h-2.79146v2.79146h-1.86097v-2.79146h-2.79146v-1.86563h2.79146v-2.79146h1.86097v2.79146h2.79146z" fill="none" stroke-width="0"></path><path d="M25.85167,31.91844c0,1.02354 -0.82813,1.85167 -1.85167,1.85167c-1.02354,0 -1.85167,-0.82813 -1.85167,-1.85167zM32.37438,29.99233v0.98632h-16.74876v-0.98632l1.97263,-1.97263v-5.41543c0,-3.02408 2.09359,-5.555 4.92227,-6.22496v-0.66995c0,-0.81883 0.66065,-1.47947 1.47947,-1.47947c0.81883,0 1.47947,0.66065 1.47947,1.47947v0.66995c2.82868,0.66995 4.92227,3.20087 4.92227,6.22496v5.41543zM27.72195,22.60427h-2.79146v-2.79146h-1.86097v2.79146h-2.79146v1.86563h2.79146v2.79146h1.86097v-2.79146h2.79146z" fill="#ffffff" stroke-width="0"></path><path d="M2,24c0,-12.15026 9.84974,-22 22,-22c12.15026,0 22,9.84974 22,22c0,12.15026 -9.84974,22 -22,22c-12.15026,0 -22,-9.84974 -22,-22z" id="base 1 1 1" fill="none" stroke-width="1"></path><g fill="#000000" stroke-width="1" font-family="Roboto, sans-serif" font-weight="400" font-size="14" text-anchor="start"></g><path d="M13,36v-12h30v12z" id="banner 1" fill="#404041" stroke-width="1" filter="url(#dropshadow-banner)"></path><text x="28" y="33" fill="#ffffff" stroke-width="1" font-family="sans-serif" font-weight="bold" font-size="8" text-anchor="middle">BETA</text><rect x="2" y="2" width="44" height="22" fill="none" stroke-width="1"></rect><path d="M2,24v-22h44v22z" fill="none" stroke-width="1"></path><path d="M2,24v-22h44v22z" fill="none" stroke-width="1"></path><path d="M2,24v-22h44v22z" fill="none" stroke-width="1"></path><path d="M2,24v-22h44v22z" fill="none" stroke-width="1"></path><path d="M33.625,14.375l9.375,0.625v8.75z" fill="url(#color-2)" stroke-width="1"></path><path d="M33,5l10,10h-8c-1,0 -2,-1 -2,-2z" fill="#4bc6a8" stroke-width="1"></path></g></svg>